<?xml version="1.0" encoding="utf-8"?>
<!-- Generator: Adobe Illustrator 24.1.2, SVG Export Plug-In . SVG Version: 6.00 Build 0)  -->
<svg version="1.1" id="Шар_1" xmlns="http://www.w3.org/2000/svg" xmlns:xlink="http://www.w3.org/1999/xlink" x="0px" y="0px"
	 viewBox="0 0 482 531" style="enable-background:new 0 0 482 531;" xml:space="preserve">
<style type="text/css">
	.st0{fill:#739A28;stroke:#739A28;stroke-width:2;stroke-linejoin:round;}
	.st1{fill:#31521B;stroke:#31521B;stroke-width:2;stroke-linejoin:round;}
</style>
<path id="Кольорова_заливка_2" class="st0" d="M429,36c9.3,2.4,13.2,18.4,16,28v9c2.4,8.7,1,22.6,1,33
	c0,15.2,1.6,33.8-2,46v6h-1v4h-1v3h-1l-1,4h-1l-1,4l-2,1v2l-2,1l-4,5h-2l-1,2l-3,1v1l-5,1v1h-3v1h-5v1c-6.1,1.8-14.6-1.6-18-3h-3v-1
	h-2v-1h-2l-1-2h-2l-5-6h-1v-2c1.1,0.8,0.1-0.1,1,1h1v-1c1.9,0.3,2,2.3,3,3c1.4,0,1.7-1.7,4-1v1h3v1l4-1c0.7,0.9,1.9,1.3,3,1v-1h3v-1
	c2.1-0.7,3.1,1.4,4,1l2-3l2,1l1-2l2,1v-2l2,1v-2l2,1c0.8-0.6,0.6-3.2,2-3v1h2c0.6-3.5,1.6-5.2,5-6c1.1-1.1,0-0.4,2-1l-1-3h3v-1
	c-1.1-1.1-0.4,0-1-2h2v-1h-1c0.5-2.6,1.8-0.9,3-2v-1h-1l2-3h-1v-1l2-1c-0.1-1.4-0.4,0.3-1-1c0.1-1.8,1-2,1-2l-1-3h1v-2h1v-2h1l-1-3
	c-0.1-3.6,1.2-9.2,2-12v-24c0-14.1,1.2-30.7-2-42c-0.6-2.3,1.1-5.6,1-6h-1v-2h-1c-0.7-2.2,1.3-3,1-4l-2-1c-1.3-2.3,0.3-3.4,0-4l-2-1
	c-0.4-1.4,0.3,0,1-1L429,36z M329,103v2h1v-1c2.2,1.6-0.1,1.7,1,3h1c1.1-1.1,0-0.4,2-1v3l3-1v1c2.2,1.2,2.9,2.7,4,5h-3
	c-3.2-3.7-9.1-3.9-14-6v-1h-2v-1h-3v-1h-3v-1l-8-1c-26.4-9.3-77.6-10.2-105-1l-8,1v1l-9,2v1h-2v1h-3v1l-6,2v1h-2v1h-2v1h-2v1l-6,2
	c-0.3,0.7-0.7,1.3-1,2h-2c-0.3,0.7-0.7,1.3-1,2h-2l-2,3h-2l-8,9l-9,8v2l-4,3c-0.3,1-0.7,2-1,3l-2,1v2l-2,1v2l-2,1v2l-2,1v2l-2,1v2
	l-2,1c-0.7,2-1.3,4-2,6l-2,1c-0.3,1.3-0.7,2.7-1,4h-1v2h-1c-0.7,2-1.3,4-2,6h-1v3h-1v2h-1v3h-1v2h-1v3h-1v3h-1v3h-1v3h-1
	c-0.3,2.7-0.7,5.3-1,8h-1l-1,11h-1v8c-2.8,10-1,26.1-1,38v59h1v9h1v7h1l1,9h1v4h1v3h1v3h1v4h1v3h1c0.3,1.3,0.7,2.7,1,4h1v2h1
	c0.3,1.7,0.7,3.3,1,5c1.7,3.2,3.4,3,4,8c-2.4-0.6-2.2-1-4-2l1-3h-3v-1h-1l1-2h-1c-1.1-1.1,0-0.4-2-1l1-3h-3l1-2h-1v-1h-2l1-2h-2v-1
	h1v-1h-2l-2-6h-1l1-2h-2l1-2h-2v-1h1l-2-3c0.2-0.1,1.9,0.1,1-1h-2l1-2l-2-1l1-2l-2-1l1-2c0,0-0.9,0-1-2h1v-1l-3-2v-1h1l-1-4h1v-1h-1
	l-1-3h-1l1-3c0,0-1.4-0.5-1-3h1v-1h-1v-3h-1c-0.7-2.4,1.1-4.3,1-5h-1v-3h-1c-1.2-4,1.4-8.4,1-11c-3.7-22.6,1.9-52.5-2-75h1v1
	c1.6,1.1,0.9-2.5,1-3h-1l1-10h1l-1-5h1l1-3h-1l1-5h1l-1-3h1l-1-3h1v-2l2-1v-1h-1l1-3h-1v-1l2-1l-1-2l2-1c0.1-1.4-0.1,0.1-1-1
	c0.5-1.5,1.3-1,2-2l-1-2c0.5-0.9,1.8-0.4,2-2h-1v-1h2v-1h-1c0.6-1.4,1.2-1,2-2l-1-2h2l-1-2h1l1-4l2,1v-1h-1v-1h1
	c1.3-1.2,0.8-0.2,0-2h2c-0.3-0.7-0.7-1.3-1-2h1v-3h2c-0.3-0.7-0.7-1.3-1-2h2c-0.3-0.7-0.7-1.3-1-2h2c-0.3-0.7-0.7-1.3-1-2h2v-1
	c0.9-1.1,1.1-0.4,0-2c1.9-1.1,1.2,1.1,3-1c-1.1-1.1-0.4,0-1-2h2c-0.3-0.7-0.7-1.3-1-2l3-1c1-1.6-2.2-0.9,0-3h2c0,0-1.2-1.9,0-3h2v-1
	h-1l2-3h3c-0.3-1-0.7-2-1-3h1v-1h3c-0.3-1-0.7-2-1-3h1l2-3h2l2-3c3.6-3.5,7.4-6.5,10-11l3,1c0-1.4,0.4-2.8,1-4l3,1
	c0-1.4,0.4-2.8,1-4h1v1c0.9,1.9,1-2,1-2l3,1v-3l2,1v-2l2,1v-2l2,1v-2l2,1v-2l2,1v-2l2,1v-2l2,1c1-0.7,0.4-1.6,2-2v1h1v-2h1v1l2-1v1
	h1c0.8-0.5,0.4-1.4,2-2v1h1l1-3h1v1c1.5,0.4,1.3-1.7,2-2c1.3-0.5-0.4,0.8,1,1h1v-1l3,1l1-2l3,1l2-3l3,1v-1h2v-1l3,1v-1h2v-1h1v1
	c1.8,0.3,1.6-0.9,2-1c2.5-0.7,3.7,0.8,5,1v-1h2v-1c2.4-0.8,3.8,0.8,5,1c2.5-1,8.6-3.2,13-2v1l10-1h9c0.3,0.1,0.3,1.3,2,1v-1h9v1h4v1
	c0.4,0.1,2.8-1.7,5-1v1h3v1c1.1,0.3,1.7-1.7,4-1v1h2v1h1v-1c1.1-0.4,2.3,0,3,1l3-1v1h2l1,2l3-1l1,2h1v-1l3,1v-1h1l1,2
	c1.7,1.2,3.7,0.6,6,0l1,3c1.1,0.9,0.8-0.9,1-1c1.5-0.4,1.4,1.7,2,2c1.3,0.6-0.3-0.8,1-1h1v1l2-1l1,3h1v-1h1v1l2-1v2l2-1l1,3l2-1v2
	c1.1,0.9,0.9-1,1-1c1.3-0.5,0.4,0.3,1,1v1l2-1v2L329,103z M446,365v112c-2.4,1-4,2.9-6,4l-16,7v1l-4,1v1h-2v1h-2v1h-2v1h-2v1l-4,1v1
	h-2v1h-3v1l-4,1v1h-2v1h-3v1l-4,1v1h-3v1h-2v1h-3v1h-2v1h-3v1h-2v1l-6,1v1h-3v1h-2v1h-3v1l-10,2v1h-4v1h-4v1h-4v1h-4v1h-4v1h-6v1h-6
	v1h-6v1h-8v1h-10v1h-15c-9.3,2.6-23.8,2.7-33,0h-15v-1l-25-2c-4.9-1.5-12.2-2.5-17-4h-5v-1l-12-2v-1h-4v-1l-7-1v-1h-3v-1h-3v-1h-3
	v-1h-3v-1h-3v-1h-3v-1h-3v-1h-2v-1h-3v-1l-5-1v-1h-2v-1h-3v-1l-6-2v-1h-2v-1h-2v-1h-2v-1h-2v-1h-2v-1h-2l-1-2l-4-1l-1-2l-4-1l-1-2
	h-2l-1-2h-2l-2-3h-2v-1c-1.5-1.4-1.3-0.5-2-3c1.1,0.8,0.1-0.1,1,1l2-1v2h1v-1c2.6,1.2,0.7,1.5,2,3l2-1v2l2-1v3l2-1v2l2-1v2h1v-1l4,1
	l1,3h1v-1c1.8,0.5,0.8,1.6,2,0h1c1.3,1.1-1.2,1.7,1,2c0,0,0-2,1-1v2l2-1l1,3h1v-1l2,1v-1h1l1,3c1.4,0.2-0.2-0.2,1-1l2,1v-1h1l1,3h1
	v-1l2,1v-1h1l1,2l2-1l1,2l2-1l1,2h1v-1c0.8,0.5,1.5,1.2,2,2l2-1l1,2l2-1l1,2l2-1l1,2l2-1l1,2l3-1l2,3h1v-1l3,1v-1h1v1h2l1,2h1v-1
	c3.2-0.2,1.7,1.2,3,2h1v-1l4,1v-1h1v1h2v1l3-1v1l4,1v1c1.2,0.3,1.8-1.8,4-1c0.3,0.7,0.7,1.3,1,2c1.4,0-0.4-0.8,1-1l6,1v1
	c1.4,0-0.4-0.7,1-1l6,1v1h1v-1c2.9-0.5,6.4,1.1,8,2c1.1,0,3.4-1.8,6-1v1h4v1c1.8,0.4,7.4-2.1,11-1v1l15,1c1.7-0.5,6.8-2,10-1v1l15-1
	v-1h8v1h1v-1h5v-1c3.9-1.2,4.6,1.5,9,0v-1h3v-1h1v1c2.6,0.4,3-1,3-1c2.2-0.6,2.9,1.3,4,1v-1l3-1l3,1v-1l4-1v-1h1v1c2.2,0.2,2-1,2-1
	l3,1l1-2h2v-1l3,1l1-2l2,1v-1h2v-1l2,1c0,0-0.1-1,2-1v1h1l2-3h1v1l3-1c0.6,0.4-0.3,1.6,1,1l2-3l2,1l1-2h1v1l2-1c0.6,0.4-0.3,1.6,1,1
	v-1c1.5-0.8,1.1-1.4,2,0c1.3-0.9,1.1-2.8,3-3v1c0.8-0.6,1.4-1.2,2-2l2,1v-1h1v1c1.9-1.2-0.6-0.6,1-2c1.5-1.3,3.3-0.5,5,0v-1h-1
	c-1.8-1,2-1,2-1v-1h1v1c1.8-0.4,0.9-1.7,2,0h1l1-3l2,1v-2l2,1l1-2l2,1v-2l2,1v-2l2,1v-1l2,1v-2l2,1v-1h-1c-1.8-1,2-1,2-1v-1l2,1v-2
	l2,1v-2l2,1v-2l2,1v-2h1v1h1v-1l2,1v-2l2,1v-2l2,1v-2l2,1v-2h1v1h1v-2l2,1v-2l2,1v-2l2,1v-2l2,1v-3h1v1c1.4-1,1.1-3,2-1h1v-2l2,1v-2
	l2,1v-2l2,1v-2l2,1v-2c0.4-0.3,2.1,1.6,3,0V354c1.3-0.6,1.1-1.3,2-2l2,1l1-3l2,1v-2h1v1l2-1v1h1v-2c1.4-0.3,0.6,0,1,1h1v-3h1v1h1
	l1-3l2,1l1-3l6-5v-1h3l-1-3h2l-1-2h3c-0.9-2.2,0.3-2.1-1-3v-1h2l-1-2l2-1l-1-2h1v-2h1v-3h1v-1h-1v-9h-1v-1h1l-1-5h1v-1l-3-2
	c0-1.4,0.2,0.2,1-1l-1-3h1v1c7,3.8,9,10.1,12,18h1v4h1v2h1v11l-2,1v4h-1v3h-1v3C473.2,351.8,459.2,362.5,446,365z M351,365h-60
	c-15.5,0-29.2,0.3-40-4h-3v-1h-2v-1l-6-2l-6-7h-1v-2c1.1,0.8,0.1-0.1,1,1h1v-1l3,2c0.5-0.5-0.3-1.6,1-1l1,2l3-1v1h2v1l3-1v1h3v1h4v1
	l3-1h92C351.1,355.9,351,360.7,351,365z"/>
<path id="Кольорова_заливка_1" class="st1" d="M376,176v-2c-13.5-3.1-18.6-20.5-23-33l-3-13h-1v-2h-1v-3h-1v-2l-2-1
	v-2l-4-3l-1-2h-2l-4-5h-2l-1-2l-4-1l-1-2l-9-3v-1l-4-1v-1l-6-1v-1h-2v-1l-7-1v-1h-3v-1h-4v-1h-4v-1h-4v-1h-6v-1h-6v-1h-8v-1h-15v-1
	h-14v1h-16v1h-7v1h-7v1h-5v1h-5v1h-3v1h-4v1l-10,2v1h-2v1h-3v1h-2v1h-3v1l-6,2v1h-2v1l-6,2v1l-3,1c-0.3,0.7-0.7,1.3-1,2h-2
	c-0.3,0.7-0.7,1.3-1,2l-3,1l-4,5h-2l-6,7l-3,2v2l-5,4v2l-3,2c-0.3,1-0.7,2-1,3l-2,1v2l-2,1v2l-3,2c-0.3,1.3-0.7,2.7-1,4l-2,1
	c-0.3,1-0.7,2-1,3h-1v2h-1v2h-1v2h-1v2l-2,1v2h-1v2h-1v3h-1v2h-1l-1,4h-1l-1,5h-1v3h-1v3h-1v3h-1v3h-1l-1,8h-1v5h-1v6h-1v7h-1l-1,55
	c0,32.3,1.3,59.9,11,82v3h1l2,6h1v2h1v2h1v2h1v2h1v2l2,1v2l2,1v2l3,2v2l5,4v2l3,2v2l6,5l1,2h2l2,3h2l2,3h2l1,2l4,1l1,2l4,1v1l6,2v1
	h3v1l4,1v1l6,1v1h3v1h3v1l7,1v1h4v1h5v1h5v1h6v1h7v1h9v1h14v1h10c8,0,18.6,0.8,25-1h14v-1h7v-1h7v-1h6c8-2.4,17.6-4.1,25-7l7-1v-1h2
	v-1l9-2v-1l4-1v-1h3v-1c1.3-0.6,4.4-0.9,5-2v-48c-1.7-1.8-1.1-7.6-1-11h-71c-21.8,0-40.3,0-53-9l-3-4l-6-5c-4.3-6.1-9.1-20.8-6-31
	v-5h1c0.3-2,0.7-4,1-6h1c0.3-1.3,0.7-2.7,1-4l2-1v-2l5-4l3-4c13.9-9.8,36.2-9,60-9h108c23.3,0,47.2-0.4,61,9l3,4l6,5v2l2,1v2l2,1v2
	h1c0.3,3,0.7,6,1,9h1v13h-1c-0.3,3-0.7,6-1,9h-1v2h-1l-2,6l-2,1v2l-2,1l-4,5h-2l-2,3l-4,1v1h-2v1l-11,4v112l-52,26h-3v1h-2v1h-3v1
	l-4,1v1l-6,1v1h-2v1l-6,1v1h-2v1l-10,2v1h-3v1h-3v1l-8,1v1l-8,1v1h-5v1h-5v1h-6v1h-7v1h-8v1l-16,1h-11c-3.2,0.9-20.4,2.3-25,1v-1
	h-20v-1h-10v-1h-9v-1h-7v-1h-7v-1h-5v-1h-5v-1h-5v-1h-4v-1h-5c-21.9-7-45.2-12.9-63-24h-2v-1h-2v-1h-2v-1h-2v-1h-2v-1l-3-1l-1-2h-2
	l-1-2h-2l-5-6h-2l-3-4h-2l-4-5l-9-8v-2l-5-4v-2l-4-3v-2l-2-1v-2l-3-2l-1-4l-2-1l-1-3h-1l-1-4l-2-1l-1-4l-2-1v-2h-1v-2h-1v-2h-1v-2
	h-1v-2h-1v-2h-1v-2h-1v-2h-1v-2h-1v-2h-1l-1-4h-1v-2h-1v-3h-1v-2h-1v-3h-1v-2h-1l-1-6h-1v-3h-1v-3h-1v-3H9v-4H8l-1-8H6l-1-10H4
	l-2-24c-2.7-9.5-2-22.9-2-35v-54c0.2-3.7,0.9-7.4,2-11v-10h1v-8h1v-6h1v-6l9-33h1v-2h1l1-6h1l1-4h1v-3h1l2-6h1v-2h1v-2h1v-2h1v-2h1
	v-2h1v-2h1v-2h1v-2l2-1l1-4l2-1l1-4l2-1v-2l2-1v-2l2-1v-2l2-1v-2l3-2v-2l3-2v-2l5-4v-2l4-3v-2l9-8l1-3h2l13-14h2l4-5h2l2-3l3-1l1-2
	h2l1-2l3-1v-1h2l2-3l4-1l1-2l4-1l1-2h2v-1h2v-1h2v-1h2v-1h2v-1l6-2v-1l5-1v-1h2v-1h3v-1h2v-1l6-1v-1h2v-1h4v-1h3v-1h3v-1h3V9h5V8h4
	V7h4V6h5V5h6V4h6V3h8V2l19-1V0l35,1v1l19,1c5.4,1.6,12.8,2.4,18,4h5v1l8,1v1h4v1l7,1v1h3v1h3v1h3v1h3v1h2v1h3v1h3v1h2v1h3v1l6,2v1
	l9,3v-1c2.6-0.7,3.2-1.6,5-3v-1h2l1-2h2l1-2h2v-1l4-1v-1h3v-1c6.2-2.4,19.7-2.5,26,0v1h3v1h2v1h2l1,2h2l4,5l4,3v2l2,1v2l3,2v3h1v3h1
	v5c3.7,12,3,30.5,3,46c0,19.7,1.1,42.2-4,57v4h-1v2h-1c-0.3,1.7-0.7,3.3-1,5l-2,1v2l-3,2v2l-2,1v1h-2l-2,3h-2l-1,2h-2v1h-2v1h-3v1
	h-3v1h-7c-1.5,0.4-6,1.9-9,1C384.6,178,379.6,176.7,376,176z"/>
</svg>
